<svg xmlns="http://www.w3.org/2000/svg" viewBox="0 0 120 120" role="img" aria-label="Sopodiva Development">
  <defs>
    <linearGradient id="sdSteel" x1="0" y1="0" x2="1" y2="1">
      <stop offset="0" stop-color="#3E6488"/>
      <stop offset="0.5" stop-color="#16324F"/>
      <stop offset="1" stop-color="#0E2236"/>
    </linearGradient>
  </defs>
  <!-- building rooflines -->
  <path d="M30 40 L48 22 L66 40" fill="none" stroke="url(#sdSteel)" stroke-width="6" stroke-linejoin="round" stroke-linecap="round"/>
  <path d="M54 40 L72 22 L90 40" fill="none" stroke="#5B7C99" stroke-width="6" stroke-linejoin="round" stroke-linecap="round" opacity="0.85"/>
  <!-- S -->
  <path d="M58 52 C58 47 53 44 47 44 C40 44 35 48 35 54 C35 66 60 60 60 73 C60 80 53 84 45 84 C38 84 33 81 32 75"
        fill="none" stroke="url(#sdSteel)" stroke-width="9" stroke-linecap="round"/>
  <!-- D -->
  <path d="M66 44 L78 44 C90 44 96 53 96 64 C96 75 90 84 78 84 L66 84 Z"
        fill="none" stroke="url(#sdSteel)" stroke-width="9" stroke-linejoin="round" stroke-linecap="round"/>
</svg>
